<mxfile host="app.diagrams.net" modified="2023-03-27T13:55:35.964Z" agent="Mozilla/5.0 (Windows NT 10.0; Win64; x64) AppleWebKit/537.36 (KHTML, like Gecko) Chrome/110.0.0.0 Safari/537.36 Edg/110.0.1587.63" version="21.1.1" etag="jp3a8DQrg9j_2uE302w5" type="github">
  <diagram name="PÃ¡gina-1" id="f6Wdj8Nj--aoem9MJ0D7">
    <mxGraphModel>
      <root>
        <mxCell id="0" />
        <mxCell id="1" parent="0" />
      </root>
    </mxGraphModel>
  </diagram>
</mxfile>
